<svg width="24" height="24" viewBox="0 0 24 24" fill="none" xmlns="http://www.w3.org/2000/svg">
<circle cx="12.25" cy="3.25" r="1.25" fill="black"/>
<path fill-rule="evenodd" clip-rule="evenodd" d="M8.75001 4.5999C8.11488 4.5999 7.60001 5.11477 7.60001 5.7499C7.60001 6.38503 8.11488 6.8999 8.75001 6.8999C9.38513 6.8999 9.90001 6.38503 9.90001 5.7499C9.90001 5.11477 9.38513 4.5999 8.75001 4.5999ZM6.40001 5.7499C6.40001 4.45203 7.45214 3.3999 8.75001 3.3999C9.78582 3.3999 10.6651 4.07006 10.978 5.00044C11.1701 4.96893 11.3713 4.94962 11.5847 4.94962C12.4477 4.94962 13.2571 5.22874 13.9206 5.75194L14.675 4.95227L14.6786 4.94847L14.6786 4.94849C15.4441 4.15103 16.7514 4.05515 17.5683 4.83801L17.5896 4.85837L17.6087 4.88073C17.6668 4.94846 17.7227 5.02054 17.7752 5.09618C18.3498 5.00819 18.9567 5.1638 19.4181 5.59761C19.8007 5.95013 19.9907 6.4297 20.0222 6.91237C20.1863 6.99153 20.3375 7.092 20.4717 7.20944L20.4819 7.21839L20.4917 7.2278C21.218 7.92376 21.3041 9.0652 20.7296 9.87954C21.4717 10.6721 21.405 11.9159 20.6875 12.7232L20.6789 12.7328L20.67 12.742L20.1514 13.2773C20.1601 13.3656 20.1662 13.4592 20.1662 13.5543C20.1662 14.5704 19.7792 15.5123 19.0623 16.2291L18.5428 16.7486C18.4633 17.3087 18.196 17.7416 17.939 18.0401C18.0075 18.5278 17.9759 19.0534 17.7721 19.5504C17.5158 20.1758 17.0104 20.6966 16.2309 21.0194C15.8894 21.1725 15.5285 21.2308 15.2274 21.2308C14.62 21.2308 14.111 21.0154 13.7363 20.7844C13.4425 20.9172 13.1291 20.9756 12.8144 20.9756H12.8014L12.7884 20.975C12.3206 20.9547 11.8983 20.7916 11.5656 20.6065C10.8786 21.2608 10.012 22.0119 8.95553 22.3406L8.95199 22.3417C8.35617 22.5231 7.76312 22.5997 7.17637 22.5997C6.2514 22.5997 5.34199 22.3939 4.50648 21.9503C2.97553 21.1455 1.86974 19.6489 1.50871 17.9502C1.16078 16.3673 1.66029 14.6265 2.76888 12.8431L2.77328 12.836L2.77333 12.836C3.11444 12.3039 3.79709 11.6499 4.38533 11.1276C4.86515 10.7016 5.32869 10.3234 5.59122 10.1111C5.75592 9.45315 6.09558 8.86773 6.56649 8.39682L6.58057 8.38274L6.59555 8.36962L7.39477 7.66999C6.79294 7.24444 6.40001 6.54306 6.40001 5.7499ZM8.72566 8.09978L7.4017 9.25876C7.21313 9.45006 7.05741 9.66673 6.93945 9.90353C7.0674 9.93374 7.23794 9.98855 7.39006 10.0992C7.5388 10.2074 7.70604 10.3458 7.86919 10.5215L10.0776 8.18096C10.7401 7.45669 11.8476 7.32653 12.6452 7.82505L12.6527 7.82972L12.66 7.83461C12.6626 7.83637 12.6654 7.83818 12.6681 7.84004C12.7364 7.88549 12.8481 7.95984 12.9603 8.07199L12.9766 8.08829L12.9916 8.10578C13.0538 8.17843 13.1137 8.25608 13.1693 8.33774C13.62 8.28194 14.0922 8.36831 14.492 8.60821L14.5043 8.61556L14.5161 8.62348L14.5243 8.6289C14.5892 8.67213 14.6934 8.74151 14.8 8.8447C15.0631 9.07759 15.2228 9.38987 15.3123 9.68434C15.3624 9.83739 15.3922 10.0013 15.4039 10.1555C15.4561 10.1824 15.5082 10.2129 15.5602 10.2476L15.5684 10.253C15.6366 10.2985 15.7483 10.3728 15.8605 10.485L15.8746 10.4991L15.8878 10.5141C16.0915 10.747 16.2588 11.0063 16.359 11.3401L16.3612 11.3477L16.3612 11.3477C16.5293 11.9361 16.4327 12.5964 16.0671 13.123C16.3443 13.4013 16.4944 13.7415 16.5582 14.0831C17.2347 14.2298 17.8284 14.5273 18.1899 15.0834L18.2043 15.1056L18.2167 15.1289L17.6868 15.4104C18.2167 15.1289 18.2167 15.129 18.2168 15.1291L18.2169 15.1293L18.2171 15.1298L18.2177 15.1309L18.2193 15.1338L18.2236 15.1423L18.2372 15.1691C18.2483 15.1912 18.2631 15.2218 18.2804 15.2595C18.2855 15.2705 18.2908 15.2822 18.2962 15.2944C18.7329 14.8174 18.9662 14.2147 18.9662 13.5543C18.9662 13.4838 18.9598 13.4105 18.9492 13.3238L17.818 12.0087L16.4104 10.3725L14.7725 8.46845L13.5111 7.00205L13.411 6.90196C12.9214 6.41228 12.2855 6.14962 11.5847 6.14962C11.4067 6.14962 11.2346 6.1699 11.0558 6.20595C10.8435 7.28555 9.89184 8.0999 8.75001 8.0999C8.74188 8.0999 8.73377 8.09986 8.72566 8.09978ZM14.7587 6.61223L15.2584 7.1932L16.7329 5.70446C16.728 5.69828 16.723 5.6921 16.718 5.68594C16.4175 5.42041 15.8863 5.4249 15.5458 5.7779L14.7587 6.61223ZM17.8166 6.31565L16.0435 8.10583L16.8896 9.08935L18.8269 7.07066C18.8269 7.06652 18.8269 7.06222 18.8269 7.05774C18.8269 6.80071 18.7373 6.60147 18.6039 6.47915L18.5973 6.47312L18.5973 6.47307C18.3955 6.28243 18.1007 6.22143 17.8166 6.31565ZM19.5692 8.0303L17.6757 10.0032L18.2941 10.7221L19.3856 9.56876L19.3913 9.56276L19.3971 9.55691L19.6706 9.28341C19.9947 8.94167 19.974 8.40455 19.6711 8.1036C19.6393 8.07671 19.6052 8.05216 19.5692 8.0303ZM19.9062 10.7645L19.0808 11.6366L19.5461 12.1775L19.7982 11.9173C20.1248 11.5424 20.1199 11.0608 19.9062 10.7645ZM17.1683 15.7147C17.042 15.5364 16.7996 15.3718 16.3603 15.2682L16.1508 15.7611L16.1087 15.8602L16.0348 15.9384L13.6702 18.4421L13.6683 18.4442L12.9974 19.1614L12.9954 19.1635L12.601 19.5811L12.5951 19.5873L12.589 19.5934L12.4776 19.7048C12.5925 19.7434 12.7107 19.7691 12.8277 19.7755C13.059 19.7733 13.2485 19.7119 13.4057 19.594L13.7742 19.3176L14.1364 19.6022C14.4129 19.8194 14.7936 20.0308 15.2274 20.0308C15.3873 20.0308 15.579 19.9976 15.7448 19.9222L15.7549 19.9176L15.7651 19.9134C16.2793 19.7022 16.5364 19.4011 16.6618 19.0952C16.7937 18.7736 16.8039 18.3853 16.7087 17.9856L16.627 17.6426L16.8869 17.4043C17.1071 17.2025 17.3505 16.8788 17.3656 16.4563L17.366 16.4452L17.3668 16.4341C17.375 16.3216 17.3395 16.15 17.274 15.9667C17.2442 15.8832 17.2132 15.8111 17.19 15.7605C17.1814 15.7417 17.174 15.7263 17.1683 15.7147ZM11.0677 19.4177L11.7344 18.7509L12.121 18.3416L12.123 18.3395L12.7939 17.6223L12.7958 17.6202L15.0885 15.1927L15.3958 14.4698C15.3917 14.2666 15.3354 14.1105 15.2457 14.0021L12.4316 16.9166C12.2015 17.1549 11.8216 17.1616 11.5832 16.9314C11.3449 16.7012 11.3382 16.3214 11.5684 16.083L14.7262 12.8127L14.7335 12.8051L14.7335 12.8052L15.0047 12.534C15.2197 12.3014 15.2897 11.9706 15.2084 11.6811C15.1709 11.5581 15.1103 11.4513 15.0003 11.3224C14.9874 11.3107 14.9719 11.2989 14.9464 11.2812L10.9305 15.4177C10.6997 15.6555 10.3198 15.6611 10.0821 15.4303C9.84431 15.1995 9.83869 14.8196 10.0695 14.5818L14.2098 10.3172C14.2098 10.3136 14.2098 10.3099 14.2098 10.306C14.2098 10.2244 14.1949 10.1268 14.171 10.0549L14.1681 10.0463L14.1655 10.0376C14.1173 9.87687 14.0505 9.78252 14.0017 9.74067L13.9842 9.72568L13.9679 9.70939C13.9469 9.68837 13.9254 9.67212 13.8639 9.63091C13.6783 9.52385 13.4305 9.49099 13.1982 9.55113C13.1939 9.5528 13.1897 9.5544 13.1855 9.55593L8.92877 13.9044C8.69696 14.1412 8.31709 14.1452 8.08029 13.9134C7.84349 13.6816 7.83944 13.3017 8.07125 13.0649L12.1174 8.9316C12.111 8.92356 12.1046 8.91553 12.0979 8.90752C12.0792 8.89095 12.0546 8.87335 12.0027 8.83863C11.6884 8.64688 11.2256 8.70202 10.9614 8.99267L10.9539 9.0009L10.9538 9.00083L8.24306 11.8738L5.94402 14.4033C5.72114 14.6486 5.34168 14.6667 5.09645 14.4438C4.85123 14.2209 4.83312 13.8415 5.056 13.5962L7.04833 11.4041C6.93851 11.2736 6.81761 11.1683 6.70098 11.0819C6.69367 11.0794 6.67945 11.0749 6.65655 11.0698C6.6022 11.0576 6.53171 11.0488 6.45325 11.0441C6.41757 11.042 6.38284 11.0409 6.3505 11.0404C6.09141 11.2499 5.64499 11.614 5.18202 12.025C4.58291 12.5569 4.02577 13.1077 3.78568 13.4804C2.76207 15.1284 2.42697 16.5409 2.6811 17.6943L2.68212 17.6989L2.6821 17.6989C2.97114 19.0615 3.86 20.2551 5.06565 20.8885L5.06807 20.8898C5.7171 21.2346 6.43132 21.3997 7.17637 21.3997C7.65632 21.3997 8.12998 21.3374 8.60089 21.1942C9.48463 20.9186 10.2437 20.2178 11.0014 19.4839L11.0676 19.4177L11.0677 19.4177Z" fill="black"/>
</svg>
